<?xml version="1.0" encoding="UTF-8" standalone="no"?>
<svg
   xmlns:dc="http://purl.org/dc/elements/1.1/"
   xmlns:cc="http://creativecommons.org/ns#"
   xmlns:rdf="http://www.w3.org/1999/02/22-rdf-syntax-ns#"
   xmlns:svg="http://www.w3.org/2000/svg"
   xmlns="http://www.w3.org/2000/svg"
   xmlns:xlink="http://www.w3.org/1999/xlink"
   xmlns:sodipodi="http://sodipodi.sourceforge.net/DTD/sodipodi-0.dtd"
   xmlns:inkscape="http://www.inkscape.org/namespaces/inkscape"
   version="1.1"
   preserveAspectRatio="xMidYMid meet"
   viewBox="0 0 640 640"
   width="3000"
   height="3000"
   id="svg997"
   sodipodi:docname="gecko.svg"
   inkscape:version="0.92.5 (2060ec1f9f, 2020-04-08)">
  <metadata
     id="metadata1001">
    <rdf:RDF>
      <cc:Work
         rdf:about="">
        <dc:format>image/svg+xml</dc:format>
        <dc:type
           rdf:resource="http://purl.org/dc/dcmitype/StillImage" />
      </cc:Work>
    </rdf:RDF>
  </metadata>
  <sodipodi:namedview
     pagecolor="#ffffff"
     bordercolor="#666666"
     borderopacity="1"
     objecttolerance="10"
     gridtolerance="10"
     guidetolerance="10"
     inkscape:pageopacity="0"
     inkscape:pageshadow="2"
     inkscape:window-width="1528"
     inkscape:window-height="836"
     id="namedview999"
     showgrid="false"
     inkscape:zoom="0.21933333"
     inkscape:cx="1500"
     inkscape:cy="1500"
     inkscape:window-x="72"
     inkscape:window-y="27"
     inkscape:window-maximized="1"
     inkscape:current-layer="svg997" />
  <defs
     id="defs935">
    <path
       d="M33.14 251.37C33.14 251.2 33.14 251.1 33.14 251.08C33.29 251.2 33.36 251.4 33.32 251.58C33.3 251.55 33.24 251.48 33.14 251.37Z"
       id="a1BCWfXLtx" />
    <path
       d="M38.46 250.01C38.39 250.17 38.27 250.29 38.11 250.34C38.15 250.18 38.24 250.03 38.35 249.91C38.37 249.93 38.45 250 38.46 250.01Z"
       id="a2rUDRfE" />
    <path
       d="M86.93 518.67C86.66 518.64 86.39 518.64 86.12 518.67C86.02 518.68 85.23 518.81 85.13 518.83C82.93 519.37 81.12 520.92 80.26 523.01C79.07 525.83 79.47 529.07 81.32 531.5C85.25 536.05 90.16 539.65 95.67 542.04C95.77 542.09 96.52 542.47 96.62 542.52C95.93 527.32 92.62 521.95 90.52 520.06C89.55 519.15 88.26 518.65 86.93 518.67Z"
       id="a3xodp52HS" />
    <path
       d="M534.86 152.61C519.67 176.4 499.22 196.37 475.08 210.98C439.46 232.25 411.06 237.48 382.44 237.48C355.99 237.48 329.34 233.11 296.51 233.11C288.47 233.11 280.1 233.34 271.24 234C266.77 234.31 262.14 234.76 257.43 235.28C257.23 235 257.05 234.71 256.89 234.41C256.89 234.41 256.89 234.41 256.89 234.41C255.78 232.28 254.53 230.1 253.25 227.93C251.43 224.78 249.42 221.66 247.34 218.69C243.97 213.64 240.07 208.98 235.69 204.79C233.67 202.86 231.33 201.31 228.76 200.22C228.7 200.2 228.4 200.06 227.86 199.82C227.34 199.82 227.05 199.82 226.99 199.82C226.39 199.7 225.78 199.61 225.17 199.56C225.08 199.56 224.38 199.56 224.29 199.56C222.81 199.55 221.32 199.46 219.85 199.28C213.17 198.56 206.94 195.61 202.17 190.89C206.69 193.91 212.02 195.48 217.46 195.38C218.31 195.38 219.14 195.38 219.99 195.38C221.49 195.25 222.98 195.03 224.46 194.72C225.36 194.56 226.28 194.46 227.2 194.43C227.35 194.43 228.56 194.43 228.71 194.43C229.19 194.43 229.68 194.57 230.16 194.67C233.51 195.22 236.72 196.41 239.61 198.19C239.61 198.19 239.61 198.19 239.61 198.19L261.69 185L270.15 179.94L274.69 181.86L278.4 183.27C287.31 186.74 292.26 188.66 293.25 189.04C292.37 194.69 297.2 197.74 301.9 197.74C305.53 197.99 308.85 195.71 309.91 192.23C313.46 180.7 309.91 178.05 306.01 178.05C303.54 178.22 301.13 178.89 298.92 180.01C298.13 180.06 297.34 180.06 296.56 180.01C290.17 179.71 284.01 177.57 278.8 173.87C279.64 171.18 280.05 168.38 280.01 165.57C280.02 165.59 280.1 165.69 280.22 165.88C289.4 159.22 294.5 155.53 295.52 154.79C296.73 155.72 298.22 156.24 299.75 156.26C306.01 156.26 311.21 147.2 308.23 143.47C304.69 138.98 301.78 137.42 299.42 137.42C294.15 137.42 291.83 145.15 291.83 145.15C286.44 154.48 274.83 157.89 274.83 157.89C274.85 157.91 275.02 158.14 275.05 158.17C274.81 158.15 274.57 158.15 274.34 158.17C273.53 158.16 272.74 158.28 271.97 158.52C272.02 156.86 272.38 143.53 272.42 141.86C282.37 140.98 279.25 121.98 270.06 121.98C269.75 121.96 269.44 121.96 269.14 121.98C252.21 124.2 262.47 138.86 262.47 138.86C266.16 147.7 264.15 161.05 263.63 164.03C262.59 165.03 261.57 166.16 260.48 167.41C259.14 166.74 248.36 161.33 247.01 160.65C248.81 154.7 243.06 149.99 237.79 149.99C234.83 149.89 232.14 151.7 231.12 154.48C228.05 162.19 231.6 166.02 236.16 167.86C239.44 169.07 242.92 169.68 246.42 169.66C246.46 169.66 246.66 169.66 247.03 169.66C250.03 170.92 251.69 171.62 252.02 171.76C251.82 172.14 251.56 172.49 251.26 172.8C251.34 172.83 251.95 173.08 252.02 173.11C251.43 174.31 250.28 175.13 248.95 175.28C244.03 175.97 239.49 176.66 235.38 177.41C194.6 184.5 186.87 194.46 186.07 200.03C184.56 210.77 204.55 224.81 221.03 233.29C223.39 234.52 225.76 235.66 227.81 236.58C229.06 237.11 229.95 238.23 230.18 239.56C227.06 240.15 223.82 240.84 220.58 241.54C220.52 241.56 220.05 241.67 219.99 241.69C159.05 255.7 128.03 300.15 112.36 345.53C109.48 344.97 102.1 343.17 84.56 337.85C81.23 336.84 77.83 336.05 74.4 335.49C74.43 333.6 74.65 318.47 74.68 316.58C84.56 315.16 81.77 299.58 73.24 299.58C50.9 299.58 64.78 313.76 64.78 313.76C68.65 322.86 65.41 333.08 64.78 334.73C61.97 334.75 59.19 335.19 56.53 336.05C56.54 336.03 56.62 335.93 56.76 335.75C47.7 328.94 42.66 325.16 41.66 324.4C44.02 317.73 37.07 313.6 31.85 313.6C30.05 313.42 28.29 314.14 27.12 315.51C25.15 317.94 23.94 320.89 23.64 324C23.64 330.69 33.34 330.71 33.55 330.71C44.05 333.08 50.66 343.26 50.66 343.26C50.69 343.24 50.86 343.03 50.88 343C51.07 343.98 51.47 344.9 52.04 345.72C50.44 346.18 37.67 349.81 36.08 350.26C35.07 347.69 32.52 346.06 29.77 346.22C23.34 346.22 15.16 352.77 18.09 359.1C20.6 364.61 23.6 366.41 26.41 366.41C31.56 366.41 36.17 360.54 36.17 360.54C43.5 354.47 56.88 352.48 59.81 352.08C61.16 352.82 62.55 353.48 63.97 354.07C63.72 355.56 61.68 367.47 61.42 368.96C51.96 368.96 50.31 385.18 60.19 385.96C61.04 385.96 61.8 386.07 62.55 386.07C76.74 386.07 70.8 373.29 70.8 373.29C69.64 367.84 70.09 362.17 72.08 356.97C74.61 357.73 77.31 358.39 80.31 359.08C82.94 359.63 103.99 364.08 106.62 364.63C98.65 396.58 95.5 429.55 97.28 462.43C86.24 475.91 81.25 493.35 83.47 510.63C84.03 510.5 84.59 510.41 85.15 510.34C89.14 509.84 93.15 511.11 96.12 513.82C102.24 519.3 105.18 530.82 105.1 548.92C105.1 549.49 105.1 554.03 105.1 554.6C111.34 561.73 118.2 568.3 125.6 574.22C136.08 569.46 145.47 562.61 153.19 554.08C153.19 553.55 153.19 549.35 153.19 548.83C153.19 530.7 156.02 519.21 162.17 513.72C164.64 511.45 167.87 510.18 171.22 510.16C171.81 496.4 168.67 480.06 159.59 460.89C159.45 457.5 158.32 430.38 158.17 426.99C172.32 418.61 185.96 409.4 199.02 399.41C201.74 403.12 205.83 408.86 212.19 418.32C214.13 421.21 216.26 423.96 218.57 426.57C217.35 428.01 207.62 439.57 206.4 441.01C205.26 440.28 203.94 439.88 202.59 439.85C195.83 439.85 191.17 450.51 196.78 455.05C201.34 458.76 204.6 460.16 206.89 460.16C213.25 460.16 212.31 449.45 212.31 449.45C215.03 439.99 223.99 434.06 225.47 433.14C227.67 434.91 230.13 436.34 232.76 437.37C232.73 437.37 232.59 437.37 232.35 437.37C235.03 448.36 236.52 454.47 236.82 455.69C229.02 460.42 235.97 471.93 241.55 471.93C241.9 471.92 242.25 471.87 242.59 471.79C260.44 466.64 247.32 455.93 247.32 455.93C240.75 447.42 241.97 435.41 241.97 435.41C241.94 435.41 241.7 435.41 241.67 435.41C242.14 434.53 242.43 433.57 242.52 432.57C244.05 433.24 256.28 438.57 257.81 439.24C255.97 445.22 262.54 449.14 268.73 449.14C272.68 449.14 276.37 447.54 277.36 443.8C280.32 432.62 273.27 430.82 268.47 430.82C267.06 430.82 265.65 430.96 264.27 431.22C264.27 431.22 264.27 431.22 264.27 431.22C254.81 431.22 243.18 424.35 240.63 422.76C240.06 421.44 239.42 420.04 238.67 418.58C239.8 417.58 248.9 409.62 250.04 408.63C251.35 409.74 253.04 410.34 254.76 410.3C261.26 410.3 267.58 401.79 261.86 396.24C258.33 392.86 255.5 391.51 253.27 391.51C247.6 391.51 245.64 399.24 245.64 399.24C243.11 404.2 239.18 408.32 234.34 411.06C232.92 408.91 231.22 406.64 229.3 404.25C227.89 402.5 216.54 388.45 215.12 386.69C226.05 377.57 236.39 367.77 246.09 357.35C248.07 355.27 249.99 353.14 251.78 350.99C253.21 351.64 254.13 353.05 254.15 354.61C254.15 356.55 254.15 358.51 254.29 360.5C254.65 365.96 255.9 371.11 259.4 372.93C260.83 373.62 262.41 373.96 264.01 373.9C270.13 373.9 280.93 370.31 299.96 358.04C303.44 355.67 307.19 353.31 311.26 350.36C311.95 349.87 312.78 349.62 313.62 349.65C314.13 349.66 314.62 349.75 315.09 349.93C314.87 350.42 313.13 354.36 312.92 354.85C310.14 357.31 307.85 360.28 306.18 363.59C304.15 368.01 304.15 373.19 311.64 376.76C312.63 377.25 313.72 377.5 314.83 377.52C321.92 377.52 326.3 365.7 319.11 361.44C319.63 360.02 323.81 348.68 324.33 347.26C325.94 347.47 327.5 347.57 328.92 347.61C331.28 349.46 341.97 357.87 345.28 366.81C345.28 366.81 346.79 377.63 354.07 377.63C356.85 377.42 359.5 376.36 361.66 374.61C368.51 369.69 361.54 356.57 354.31 356.57C352.93 356.58 351.6 357.05 350.53 357.92C349.36 356.74 340.02 347.28 338.85 346.1C339.74 345.65 340.54 345.04 341.21 344.3C341.21 344.33 341.21 344.58 341.21 344.61C345.66 342.53 350.49 341.41 355.39 341.33C357.74 341.32 360.07 341.65 362.32 342.29C364.38 343.46 366.67 344.14 369.03 344.28C372.67 344.28 376.27 341.92 375.46 332.34C375.2 329.2 370.74 326.74 366.36 326.74C362.58 326.4 359.16 328.99 358.47 332.72C357.22 332.88 350.96 333.67 339.7 335.08C339.7 335.33 339.7 335.46 339.7 335.49C337.82 333.41 335.63 331.64 333.2 330.24C333.51 328.51 335.82 318.02 343.74 312.11C343.74 312.11 362.84 306.79 343.46 295.56C342.47 294.96 341.33 294.66 340.17 294.69C333.55 294.69 327 304.28 333.74 309.53C333.27 310.49 330.9 315.27 326.65 323.88L324.92 327.47L322.91 331.96L313.29 334.04C299.48 337.01 291.8 338.66 290.27 338.99C289.6 340.48 288.81 341.92 287.91 343.29C286.99 344.57 285.93 345.75 284.76 346.81C283.6 347.75 282.37 348.6 281.07 349.34C278.94 350.62 276.95 352.14 275.16 353.88C271.44 357.46 268.82 362.04 267.62 367.07C267.8 361.61 269.55 356.31 272.66 351.82C274.19 349.53 275.99 347.42 278 345.53C278.92 344.78 279.71 343.9 280.36 342.91C280.9 342 281.35 341.03 281.69 340.03C282.88 335.58 283.02 330.92 282.11 326.41C282.11 325.61 281.83 324.83 281.64 324.05C280.89 320.36 279.81 316.75 278.4 313.27C280.36 309.53 282.14 305.72 283.7 301.9C285.83 296.74 287.58 291.43 288.92 286.01C290.57 279.42 296.5 274.8 303.29 274.81C303.9 274.8 304.51 274.84 305.11 274.92C322.52 277.09 340.03 278.18 357.57 278.19C395.25 278.19 441.94 272.89 478.01 251.66C550.18 209.11 550.18 161.1 565.73 138.43C581.29 115.76 613.86 95.88 613.86 95.88C580.67 95.88 551.03 127.49 534.86 152.61Z"
       id="a6djngdQI" />
    <path
       d="M172.17 518.71C171.9 518.69 171.63 518.69 171.36 518.71C171.03 518.68 170.69 518.68 170.35 518.71C169.37 518.89 168.47 519.34 167.75 520.01C165.67 521.9 162.33 527.27 161.67 542.52C161.67 542.52 161.67 542.52 161.67 542.52C166.54 540.15 173.33 536.47 176.94 531.53C178.79 529.1 179.2 525.87 178.01 523.06C177.01 520.65 174.77 518.98 172.17 518.71Z"
       id="c1ELrMlq5O" />
    <path
       d="M621.77 358.83L621.77 358.7L621.77 358.83Z"
       id="d2V7TyewkL" />
    <path
       d="M622.07 361.4L622.07 361.4L622.07 361.4L622.07 361.4L622.07 361.4Z"
       id="c3E6dEDDRu" />
  </defs>
  <g
     id="g995">
    <g
       id="g993">
      <g
         id="g943">
        <use
           xlink:href="#a1BCWfXLtx"
           opacity="1"
           fill="#828a99"
           fill-opacity="1"
           id="use937" />
        <g
           id="g941">
          <use
             xlink:href="#a1BCWfXLtx"
             opacity="1"
             fill-opacity="0"
             stroke="#000000"
             stroke-width="1"
             stroke-opacity="0"
             id="use939" />
        </g>
      </g>
      <g
         id="g951">
        <use
           xlink:href="#a2rUDRfE"
           opacity="1"
           fill="#161c25"
           fill-opacity="1"
           id="use945" />
        <g
           id="g949">
          <use
             xlink:href="#a2rUDRfE"
             opacity="1"
             fill-opacity="0"
             stroke="#000000"
             stroke-width="1"
             stroke-opacity="0"
             id="use947" />
        </g>
      </g>
      <g
         id="g959">
        <use
           xlink:href="#a3xodp52HS"
           opacity="1"
           fill="#000000"
           fill-opacity="1"
           id="use953" />
        <g
           id="g957">
          <use
             xlink:href="#a3xodp52HS"
             opacity="1"
             fill-opacity="0"
             stroke="#000000"
             stroke-width="1"
             stroke-opacity="0"
             id="use955" />
        </g>
      </g>
      <g
         id="g967">
        <use
           xlink:href="#a6djngdQI"
           opacity="1"
           fill="#000000"
           fill-opacity="1"
           id="use961" />
        <g
           id="g965">
          <use
             xlink:href="#a6djngdQI"
             opacity="1"
             fill-opacity="0"
             stroke="#000000"
             stroke-width="1"
             stroke-opacity="0"
             id="use963" />
        </g>
      </g>
      <g
         id="g975">
        <use
           xlink:href="#c1ELrMlq5O"
           opacity="1"
           fill="#000000"
           fill-opacity="1"
           id="use969" />
        <g
           id="g973">
          <use
             xlink:href="#c1ELrMlq5O"
             opacity="1"
             fill-opacity="0"
             stroke="#000000"
             stroke-width="1"
             stroke-opacity="0"
             id="use971" />
        </g>
      </g>
      <g
         id="g983">
        <use
           xlink:href="#d2V7TyewkL"
           opacity="1"
           fill="#000000"
           fill-opacity="1"
           id="use977" />
        <g
           id="g981">
          <use
             xlink:href="#d2V7TyewkL"
             opacity="1"
             fill-opacity="0"
             stroke="#000000"
             stroke-width="1"
             stroke-opacity="0"
             id="use979" />
        </g>
      </g>
      <g
         id="g991">
        <use
           xlink:href="#c3E6dEDDRu"
           opacity="1"
           fill="#606060"
           fill-opacity="1"
           id="use985" />
        <g
           id="g989">
          <use
             xlink:href="#c3E6dEDDRu"
             opacity="1"
             fill-opacity="0"
             stroke="#000000"
             stroke-width="1"
             stroke-opacity="0"
             id="use987" />
        </g>
      </g>
    </g>
  </g>
  <path
     style="opacity:0.97600002;fill:#edae49;fill-opacity:1;fill-rule:evenodd;stroke:#d1495b;stroke-width:80.88189102;stroke-linecap:round;stroke-linejoin:bevel;stroke-miterlimit:4;stroke-dasharray:none;stroke-dashoffset:0;stroke-opacity:1;paint-order:stroke markers fill"
     d="m 541.17524,2644.5905 -46.03846,-44.1888 -0.15907,-37.0549 c -0.45495,-105.984 -31.98545,-171.5535 -82.49518,-171.5535 -14.99438,0 -17.89625,-1.6745 -20.43564,-11.7922 -5.03231,-20.0504 2.75882,-79.6295 15.42453,-117.9519 6.64123,-20.0943 21.08612,-49.9011 32.09974,-66.2374 l 20.02478,-29.7024 -2.86722,-41.0334 c -5.74199,-82.175 8.98794,-244.932 32.11674,-354.8712 6.24353,-29.6776 10.61531,-56.169 9.71508,-58.8697 -0.90024,-2.7007 -32.30102,-11.541 -69.77952,-19.6452 -37.4785,-8.1042 -73.65465,-16.1681 -80.39144,-17.9198 -11.42405,-2.9704 -12.60896,-1.8519 -17.59926,16.6137 -4.91009,18.1688 -4.03807,41.5729 2.95245,79.2403 3.82492,20.6101 -9.28596,34.3396 -35.62772,37.3087 -18.34957,2.0682 -22.67544,0.8362 -32.8748,-9.3632 -19.17605,-19.176 -13.06121,-52.3234 11.53148,-62.51 9.24941,-3.8313 13.6928,-9.4834 15.47516,-19.6851 1.37515,-7.8709 4.21381,-23.9269 6.30814,-35.6801 3.66947,-20.5928 3.34423,-21.5615 -8.94879,-26.6534 -23.7383,-9.8328 -94.68232,12.0458 -126.0086,38.8599 -35.80258,30.6457 -56.69044,29.4234 -72.751496,-4.257 -9.348356,-19.6036 -5.282922,-35.686 12.160936,-48.1072 20.9227,-14.8982 43.76975,-17.0334 56.30036,-5.2615 l 10.31542,9.6909 35.88226,-10.2799 c 19.73525,-5.654 36.7878,-12.9966 37.89457,-16.3169 3.52471,-10.5741 -50.3838,-58.6129 -72.59663,-64.6921 -43.84449,-11.9993 -49.78721,-14.5541 -54.54901,-23.4516 -6.3476,-11.8607 6.27718,-47.197 19.36473,-54.2012 21.57154,-11.5447 58.60614,9.8995 58.60614,33.9349 0,13.0155 3.99896,17.6451 35.26096,40.822 33.85442,25.0987 36.08228,26.0225 55.85106,23.1582 11.32456,-1.6408 21.61595,-3.9152 22.86975,-5.0543 1.2538,-1.1391 2.27963,-21.9059 2.27963,-46.1484 0,-40.6434 -0.97678,-45.4916 -12.53799,-62.2328 -6.8959,-9.9857 -12.538,-21.4648 -12.538,-25.5092 0,-22.2357 55.80527,-36.4497 76.55565,-19.4993 20.27098,16.5588 15.79505,65.4437 -5.99206,65.4437 -5.07876,0 -6.74354,5.883 -6.77343,23.9362 -0.0219,13.1649 -1.33341,34.7074 -2.9147,47.8723 -2.29935,19.1431 -1.55793,23.9362 3.70255,23.9362 3.61769,0 43.28859,10.2583 88.15756,22.7963 44.86896,12.538 84.03167,22.7964 87.02823,22.7964 2.99656,0 6.8445,-5.6421 8.55095,-12.538 1.70649,-6.8959 12.05835,-33.1564 23.00411,-58.3567 98.84307,-227.5646 263.23965,-369.3238 483.15831,-416.6275 23.4261,-5.0389 37.0108,-10.2132 37.8217,-14.406 0.7985,-4.1284 -12.6227,-13.8383 -36.3689,-26.3119 -108.14858,-56.8096 -175.36217,-120.27697 -166.16863,-156.90697 10.70325,-42.64519 96.28327,-79.75006 239.65573,-103.90737 56.8059,-9.57142 68.7592,-13.84864 68.7592,-24.60385 0,-6.40456 -24.5392,-14.52579 -55.9365,-18.51211 -13.0778,-1.66041 -26.6782,-7.00646 -34.1291,-13.41547 -27.6111,-23.75004 -6.4726,-75.60018 28.1195,-68.97389 17.1206,3.27953 34.5905,22.01539 34.5905,37.09711 0,9.17672 5.6075,13.91051 32.5506,27.47883 l 32.5506,16.39223 9.6226,-9.62265 c 8.6558,-8.65576 9.6167,-14.7637 9.5633,-60.78779 -0.051,-44.14155 -1.4594,-53.80014 -10.2583,-70.36041 -10.1818,-19.16282 -13.1875,-44.27157 -6.55,-54.71604 5.7785,-9.0927 37.8854,-20.41654 49.5715,-17.48349 25.4782,6.39459 38.9008,60.82367 19.7278,79.99662 -5.0152,5.01519 -11.1702,9.11854 -13.6778,9.11854 -2.7043,0 -4.5593,16.81973 -4.5593,41.34067 0,40.77373 0.1409,41.2971 10.2584,38.16334 37.6148,-11.65048 73.95,-40.49177 89.1548,-70.76712 4.2513,-8.46506 13.2778,-18.46798 20.0587,-22.2287 11.3298,-6.28347 13.3394,-6.08335 24.7943,2.46896 6.8559,5.11865 16.397,14.57274 21.2024,21.00909 8.3135,11.13507 8.3668,12.483 1.0979,27.80101 -9.3361,19.67425 -31.1052,31.60886 -46.7832,25.64811 -9.2543,-3.51847 -16.1314,-0.28851 -45.9562,21.58412 -19.2903,14.14699 -35.3943,25.93798 -35.7866,26.20222 -0.3926,0.26425 -2.165,10.23228 -3.9393,22.15122 l -3.2259,21.67079 24.8257,11.36559 c 31.6739,14.50079 61.4574,18.62969 83.0292,11.51038 33.8521,-11.17223 47.16,1.56483 41.446,39.66839 -4.0263,26.84915 -19.0396,42.29035 -41.1184,42.29035 -18.4191,0 -38.7538,-16.35771 -38.7538,-31.1745 0,-7.00519 -11.0854,-13.12791 -54.5308,-30.11854 l -54.5308,-21.32593 -60.5908,36.02611 c -86.2879,51.30509 -77.9881,48.01348 -101.1972,40.13383 -13.729,-4.66113 -35.6249,-6.53521 -69.5055,-5.94912 -43.52924,0.75306 -51.7869,-0.37659 -68.83944,-9.41818 -23.93936,-12.69296 -25.61626,-6.19939 -2.27964,8.82744 27.09493,17.44687 41.57748,22.41392 73.69168,25.27372 16.5175,1.47091 35.1609,5.31018 41.4299,8.53172 27.1398,13.94662 86.4029,87.13534 119.7618,147.90354 6.5827,11.9912 9.9249,14.1001 18.2371,11.5074 5.5976,-1.7459 66.5984,-4.2634 135.5573,-5.5943 103.004,-1.9881 150.197,-0.5977 264.4377,7.7908 265.4511,19.4917 372.732,4.4629 535.7143,-75.0473 149.9974,-73.17554 269.8831,-179.03925 359.0931,-317.09314 43.093,-66.68689 98.2153,-129.20447 153.356,-173.93005 43.6035,-35.36765 115.2555,-72.90732 155.6843,-81.56565 44.3507,-9.49825 44.5667,-4.47636 1.1289,26.25179 -84.9554,60.09788 -154.6497,129.83742 -183.1036,183.22244 -7.5036,14.07814 -27.2707,58.4027 -43.927,98.49902 -51.3984,123.7306 -88.5616,183.67105 -159.33,256.98329 -142.3022,147.4174 -307.421,229.2043 -529.915,262.4783 -118.2582,17.6855 -285.6086,19.8848 -428.1479,5.6265 -31.2919,-3.1301 -62.9658,-3.9562 -73.3034,-1.9119 -26.7582,5.2917 -44.2506,26.0655 -56.2388,66.7881 -5.4692,18.5787 -17.824,51.6859 -27.455,73.5716 l -17.5109,39.7923 9.1417,29.012 c 10.4339,33.1129 12.4499,83.4959 3.9989,99.9432 -3.1469,6.1247 -13.5906,19.3424 -23.2081,29.3728 -19.3978,20.2304 -33.9738,49.7657 -38.251,77.5076 l -2.8117,18.2371 13.7504,-25.8751 c 7.5627,-14.2313 22.2589,-32.6964 32.658,-41.0334 36.2476,-29.0599 58.4683,-50.2488 60.9735,-58.1423 1.9617,-6.1804 18.4794,-11.3047 74.262,-23.038 39.4566,-8.2993 74.2173,-16.3636 77.2462,-17.9206 3.0288,-1.5571 16.8641,-25.972 30.745,-54.2553 24.2593,-49.4298 24.9546,-51.8571 17.9267,-62.5831 -9.2538,-14.1229 -5.3599,-31.1086 10.5013,-45.8083 15.7777,-14.6223 29.8075,-13.881 54.1408,2.8607 32.6502,22.464 31.9264,41.4062 -2.2544,58.9938 -21.7123,11.1719 -38.8063,29.8724 -50.0881,54.7955 -12.65,27.9457 -11.8647,36.1051 4.8152,50.0301 l 14.3027,11.9404 43.7872,-6.0049 c 39.8307,-5.4624 44.7478,-7.2323 54.4169,-19.5871 8.4633,-10.8141 14.1536,-13.5821 27.9214,-13.5821 34.4891,0 51.0702,28.3188 35.9769,61.4449 -7.0666,15.5094 -20.9058,18.3487 -46.7192,9.5848 -26.9341,-9.1444 -53.6388,-9.135 -85.0303,0.032 -39.8702,11.6402 -40.2361,14.0715 -7.0664,46.9463 24.6522,24.4331 30.3922,28.0952 37.8118,24.1244 14.2151,-7.6077 35.9892,5.9431 47.3889,29.4918 8.3541,17.2572 8.9807,22.1116 4.3098,33.3881 -5.6895,13.7357 -28.4356,27.5125 -45.4246,27.5125 -12.807,0 -30.7906,-19.7345 -34.6052,-37.9743 -7.4831,-35.784 -68.0423,-103.365 -92.6234,-103.365 -11.1117,0 -13.4891,3.2536 -25.0059,34.2229 -11.5432,31.04 -12.0638,34.8859 -5.5975,41.3522 16.5533,16.5534 12.3631,45.4666 -8.5777,59.1875 -22.2056,14.5496 -57.2276,-5.5292 -57.2276,-32.8097 0,-18.5319 5.4562,-30.5451 22.4917,-49.5213 6.7534,-7.5228 14.5913,-19.1475 17.4176,-25.8326 9.3869,-22.2032 -5.4376,-18.224 -56.6984,15.2193 -62.7431,40.9343 -136.2455,77.1057 -162.7552,80.0937 -42.0285,4.7372 -55.1391,-7.6154 -60.0196,-56.5497 -3.5833,-35.9268 -6.1015,-47.1253 -10.5974,-47.1253 -2.0828,0 -33.3317,29.4054 -69.442,65.3453 -36.1103,35.9399 -75.5243,73.7506 -87.5867,84.0237 l -21.9317,18.6784 44.7281,56.9725 c 24.6004,31.3348 47.2866,57.126 50.4139,57.3137 10.4663,0.6281 41.0399,-31.4565 53.5654,-56.2127 14.6516,-28.9583 26.567,-36.1856 45.8728,-27.8243 40.5216,17.5498 45.9494,54.978 10.6221,73.2464 -10.5153,5.4377 -17.0728,6.1015 -26.795,2.7123 -11.709,-4.0817 -15.3315,-2.3743 -40.0792,18.8904 -24.7916,21.3024 -26.8393,24.4323 -23.0662,35.2559 7.6909,22.0619 79.1491,50.0179 127.8507,50.0179 27.6704,0 32.8062,1.3978 43.1532,11.7448 9.9471,9.9471 11.3637,14.5854 9.2554,30.3043 -3.4632,25.8197 -16.6403,37.7381 -41.7237,37.7381 -25.2571,0 -45.2351,-13.706 -47.1767,-32.3656 -1.2271,-11.7921 -5.1842,-14.8346 -36.4763,-28.0447 -19.305,-8.1497 -36.6378,-14.8176 -38.5173,-14.8176 -6.1938,0 -3.5578,57.7259 3.5567,77.8907 3.8358,10.8717 14.0942,28.9055 22.7964,40.0752 8.7022,11.1698 15.8223,24.0753 15.8223,28.679 0,15.111 -28.0549,35.7259 -48.6196,35.7259 -3.8459,0 -12.9448,-6.372 -20.2199,-14.16 -15.1723,-16.242 -17.5099,-37.3808 -5.5902,-50.5519 7.1598,-7.9115 6.9794,-11.2253 -2.8851,-53.0124 -10.188,-43.1571 -11.0846,-44.8814 -28.2148,-54.2645 l -17.6923,-9.6911 -14.7569,12.1926 c -30.9967,25.6103 -48.95134,54.9145 -48.95134,79.8948 0,8.5987 -3.70887,20.2143 -8.24197,25.8124 -10.60423,13.0957 -28.96591,9.7085 -52.49116,-9.683 -22.21117,-18.3083 -23.25547,-39.2983 -2.96471,-59.5891 11.31028,-11.3103 16.46772,-13.3765 28.49544,-11.4159 13.6169,2.2196 16.59361,0.1153 40.90149,-28.9136 25.43565,-30.3758 30.82565,-42.0761 21.91905,-47.5807 -2.3632,-1.4606 -22.12718,-28.2534 -43.91985,-59.5396 -21.79263,-31.2862 -41.55748,-56.884 -43.92187,-56.884 -2.36435,0 -16.01225,9.0132 -30.32868,20.0295 -33.91368,26.096 -151.24017,103.0708 -157.10248,103.0708 -2.95892,0 -3.47375,29.4788 -1.47912,84.695 2.3312,64.5329 4.81865,88.0967 10.44903,98.9848 22.66386,43.827 47.19547,142.9909 47.19547,190.7776 0,19.6177 -1.13033,22.1991 -9.72023,22.1991 -18.12642,0 -39.5575,17.821 -51.99004,43.2322 -12.26841,25.0757 -17.94246,55.4185 -23.85046,127.544 l -3.34504,40.8369 -30.26184,25.2725 c -28.30145,23.6353 -69.48037,50.8443 -86.69362,57.2828 -5.34465,1.9991 -20.90694,-10.019 -53.57143,-41.3712 z"
     id="path1003"
     inkscape:connector-curvature="0"
     transform="scale(0.21333333)" />
</svg>
